<svg version="1.0" xmlns="http://www.w3.org/2000/svg"
 width="512.000000pt" height="512.000000pt" viewBox="0 0 512.000000 512.000000"
 preserveAspectRatio="xMidYMid meet" fill="#000000" >
<g transform="translate(0.000000,512.000000) scale(0.100000,-0.100000)"
stroke="none">
<path d="M2517 5106 c-25 -19 -37 -69 -37 -148 l0 -68 -190 0 c-163 0 -195 -2
-217 -17 -42 -27 -53 -70 -53 -198 l0 -115 -485 0 -485 0 -38 -34 -37 -34 -3
-1551 -2 -1551 -165 0 c-176 0 -212 -7 -250 -50 -18 -20 -20 -38 -23 -194 -2
-158 -1 -174 18 -204 35 -57 61 -62 335 -62 189 0 245 -3 245 -12 0 -7 -38
-175 -85 -372 -47 -198 -85 -369 -85 -380 0 -32 36 -83 69 -101 23 -12 64 -15
183 -15 136 0 157 2 186 20 43 26 51 48 103 273 l44 187 1015 0 1015 0 44
-187 c52 -225 60 -247 103 -273 29 -18 50 -20 186 -20 119 0 160 3 183 15 33
18 69 69 69 101 0 11 -38 182 -85 380 -47 197 -85 365 -85 372 0 9 56 12 245
12 274 0 300 5 335 62 18 29 20 50 20 193 0 246 -10 255 -275 255 l-165 0 0
1535 c0 1676 4 1567 -56 1614 -26 21 -35 21 -510 21 l-484 0 0 108 c0 129 -11
174 -49 202 -27 18 -44 20 -220 20 l-191 0 0 68 c0 113 -24 161 -80 161 -14 0
-33 -6 -43 -13z m431 -453 l-3 -88 -385 0 -385 0 -3 88 -3 87 391 0 391 0 -3
-87z m1052 -1753 l0 -1510 -305 0 -305 0 0 65 c0 65 1 67 53 128 109 129 177
252 223 402 23 78 27 108 27 220 1 117 -2 138 -27 210 -15 44 -43 105 -61 136
-40 65 -128 151 -180 176 -35 17 -36 18 -33 67 3 48 4 51 36 57 18 4 45 17 59
30 51 47 55 74 52 313 l-2 221 34 70 c29 61 34 82 37 165 3 77 0 107 -17 157
-40 119 -127 242 -265 377 -85 83 -121 106 -163 106 -54 0 -83 -18 -176 -108
-201 -197 -287 -350 -287 -512 0 -76 21 -156 57 -218 25 -44 25 -45 24 -283
l-2 -238 33 -36 c20 -22 47 -39 68 -44 l35 -7 3 -87 c3 -98 5 -96 -75 -72 -60
18 -135 80 -166 139 -20 38 -22 54 -22 231 0 187 0 191 -28 250 -37 79 -104
147 -181 181 -50 23 -79 29 -160 32 -127 6 -186 -7 -314 -69 -90 -43 -117 -63
-198 -142 -102 -100 -110 -118 -71 -163 41 -48 75 -39 160 42 131 126 251 183
387 184 93 0 135 -11 181 -49 68 -56 74 -82 74 -296 l0 -190 32 -65 c61 -124
183 -216 321 -242 l62 -12 -2 -545 -3 -545 -50 -14 c-35 -10 -103 -15 -225
-15 -158 -1 -184 1 -271 25 -188 51 -340 139 -480 278 -47 47 -105 113 -128
148 -65 96 -128 237 -157 347 -23 86 -27 122 -28 255 0 164 7 219 51 358 31
95 26 128 -20 150 -39 19 -81 1 -101 -43 -28 -58 -65 -216 -77 -324 -49 -450
161 -900 536 -1148 l79 -53 -462 0 -462 0 0 1510 0 1510 1440 0 1440 0 0
-1510z m-601 967 c50 -85 63 -132 59 -212 -2 -51 -10 -83 -29 -120 l-27 -50
-244 -3 -245 -2 -28 51 c-20 37 -29 71 -33 118 -8 123 46 226 208 394 l95 99
105 -109 c58 -60 120 -135 139 -166z m-11 -704 l-3 -168 -227 -3 -228 -2 0
170 0 170 230 0 230 0 -2 -167z m-148 -1048 l0 -725 -85 0 -85 0 0 725 0 725
85 0 85 0 0 -725z m255 323 c58 -117 68 -251 29 -403 -18 -69 -70 -185 -108
-241 l-26 -39 0 410 0 409 36 -35 c19 -18 50 -64 69 -101z m945 -1303 l0 -105
-734 0 c-685 0 -735 -1 -755 -18 -33 -26 -31 -79 3 -109 27 -23 30 -23 276
-23 l249 0 10 -37 c5 -21 17 -69 26 -108 8 -38 18 -78 21 -87 5 -17 -46 -18
-976 -18 -930 0 -981 1 -976 18 3 9 13 49 21 87 9 39 21 87 26 108 l10 37 513
0 c504 0 514 0 540 21 33 26 36 79 6 109 -20 20 -33 20 -1020 20 l-1000 0 0
105 0 105 1880 0 1880 0 0 -105z m-2965 -292 c-4 -21 -41 -184 -83 -363 l-77
-325 -98 -3 c-53 -1 -97 0 -97 3 0 6 159 685 166 708 5 15 19 17 101 17 l95 0
-7 -37z m2359 20 c7 -23 166 -702 166 -708 0 -3 -44 -4 -97 -3 l-98 3 -77 325
c-42 179 -79 342 -83 363 l-7 37 95 0 c82 0 96 -2 101 -17z"/>
<path d="M2010 3031 c-123 -38 -199 -135 -200 -255 0 -81 17 -129 64 -183 165
-188 471 -73 469 177 -1 173 -175 309 -333 261z m128 -161 c72 -44 76 -139 10
-195 -28 -24 -39 -27 -82 -22 -40 3 -55 11 -78 36 -52 58 -32 157 37 187 43
19 75 17 113 -6z"/>
<path d="M2265 2331 c-153 -40 -243 -190 -201 -334 35 -119 133 -197 248 -197
83 0 131 17 185 64 111 97 125 260 33 376 -54 68 -183 112 -265 91z m99 -155
c49 -20 76 -60 76 -113 0 -38 -5 -50 -34 -79 -28 -28 -42 -34 -75 -34 -57 0
-95 22 -116 66 -29 61 -2 133 58 159 41 18 50 18 91 1z"/>
</g>
</svg>
