<svg version="1.0" xmlns="http://www.w3.org/2000/svg"
 width="512.000000pt" height="512.000000pt" viewBox="0 0 512.000000 512.000000"
 preserveAspectRatio="xMidYMid meet" fill="#000000">
<g transform="translate(0.000000,512.000000) scale(0.100000,-0.100000)"
 stroke="none">
<path d="M2125 5061 c-87 -23 -159 -84 -197 -166 -20 -46 -23 -68 -26 -255
l-4 -205 -50 -30 c-69 -41 -165 -139 -211 -216 -63 -106 -82 -184 -82 -329 1
-111 4 -133 28 -200 16 -41 31 -85 34 -97 l5 -23 -426 0 -426 0 0 198 c0 304
0 305 -315 300 -206 -3 -211 -4 -266 -31 -66 -32 -132 -99 -162 -165 l-22 -47
0 -1750 0 -1750 28 -57 c40 -81 112 -143 196 -168 65 -20 88 -20 2328 -18
l2262 3 30 29 c43 42 51 79 51 254 l0 152 53 1 c73 0 117 18 144 58 l23 34 0
1004 0 1004 -25 24 c-31 32 -69 32 -100 0 l-25 -24 0 -976 0 -975 -169 0 -169
0 -4 91 c-3 81 -6 93 -27 110 -31 26 -73 24 -99 -4 -17 -18 -22 -37 -24 -107
l-3 -85 -170 0 -170 0 -5 93 c-5 101 -17 122 -68 122 -59 0 -82 -42 -82 -152
l0 -68 -167 2 -168 3 -3 85 c-2 70 -7 89 -24 107 -29 31 -72 30 -103 -2 -23
-22 -25 -32 -25 -110 l0 -85 -170 0 -170 0 0 85 c0 78 -2 88 -25 110 -33 34
-77 33 -104 -1 -17 -22 -21 -41 -21 -110 l0 -84 -169 0 -169 0 -4 91 c-3 81
-6 93 -27 110 -31 26 -73 24 -99 -4 -17 -18 -22 -37 -24 -107 l-3 -85 -170 0
-170 0 -5 93 c-5 101 -17 122 -68 122 -59 0 -82 -42 -82 -151 l0 -69 -189 0
c-129 0 -192 4 -197 11 -8 13 3325 3351 3338 3343 4 -3 8 -253 8 -555 l0 -550
25 -24 c31 -32 69 -32 101 0 l24 25 -2 574 c-3 563 -3 575 -24 602 -29 40 -65
64 -108 74 -79 18 -89 10 -406 -306 l-295 -294 -764 0 -763 0 5 28 c3 15 18
61 33 102 24 65 28 90 28 190 0 83 -5 132 -18 175 -43 145 -148 286 -272 366
l-64 42 0 202 0 202 -31 61 c-33 68 -72 105 -137 134 -49 22 -132 31 -177 19z
m124 -161 c62 -31 71 -62 71 -247 l0 -158 -136 0 -136 0 4 165 c3 155 4 167
27 199 42 59 105 75 170 41z m72 -566 c243 -72 392 -306 350 -550 -69 -392
-545 -545 -827 -266 -256 254 -157 688 185 808 81 29 210 32 292 8z m-1703
-2036 l-3 -1593 -190 -5 c-151 -4 -198 -9 -229 -23 -21 -9 -40 -17 -42 -17 -2
0 -4 693 -4 1540 0 1364 2 1545 15 1577 40 96 83 112 293 113 l162 0 -2 -1592z
m2153 556 c71 -302 136 -576 144 -609 l13 -60 -88 -90 c-49 -49 -92 -87 -95
-83 -5 5 -226 694 -391 1221 -4 12 0 17 14 17 32 0 176 77 223 119 24 21 45
38 47 36 2 -1 61 -249 133 -551z m-971 502 c63 -46 145 -89 194 -102 24 -6 27
-11 23 -33 -9 -41 -717 -2272 -728 -2293 -10 -19 -46 -32 -75 -26 -9 1 -26 15
-37 30 l-20 27 28 120 c25 105 27 124 15 146 -32 60 -121 46 -139 -22 -61
-226 -61 -281 -6 -363 l34 -51 -36 -115 c-34 -107 -36 -118 -22 -142 8 -15 29
-30 46 -36 56 -16 76 8 119 138 l38 114 39 5 c50 7 111 47 141 95 14 22 176
517 392 1205 266 840 373 1167 383 1165 8 -2 90 -247 222 -663 115 -363 209
-664 209 -670 0 -5 -256 -266 -569 -580 -617 -617 -594 -590 -577 -681 10 -51
67 -109 121 -123 31 -8 488 -11 1600 -11 l1556 0 -3 -142 -3 -143 -2215 -3
c-1513 -2 -2226 0 -2251 8 -74 21 -128 93 -129 169 0 51 36 117 78 143 35 22
50 23 242 28 227 6 242 9 280 73 20 31 20 62 20 1400 l0 1367 400 0 c374 0
400 -1 400 -17 0 -10 -97 -429 -216 -932 -200 -845 -216 -917 -203 -940 32
-57 108 -50 133 12 7 17 111 449 232 960 120 510 220 927 221 927 2 0 30 -20
63 -44z m2320 26 c0 -12 -1059 -1067 -1065 -1061 -4 5 -255 1050 -255 1064 0
3 297 5 660 5 363 0 660 -3 660 -8z"/>
<path d="M2125 4141 c-59 -16 -85 -31 -129 -71 -59 -55 -90 -126 -89 -210 1
-81 21 -128 80 -191 109 -117 284 -119 398 -6 137 138 105 363 -66 450 -59 30
-142 42 -194 28z m121 -157 c43 -21 74 -71 74 -120 0 -102 -111 -167 -197
-114 -45 27 -66 64 -66 116 0 53 24 91 74 116 42 22 71 23 115 2z"/>
<path d="M4174 2371 c-21 -16 -245 -235 -496 -487 -503 -506 -491 -490 -452
-571 37 -75 25 -74 587 -71 l499 3 29 33 29 32 0 501 c0 549 1 543 -60 574
-45 24 -92 19 -136 -14z m46 -576 l0 -405 -407 0 -408 0 405 405 c223 223 406
405 407 405 2 0 3 -182 3 -405z"/>
</g>
</svg>
