<svg version="1.0" xmlns="http://www.w3.org/2000/svg"
 width="512.000000pt" height="512.000000pt" viewBox="0 0 512.000000 512.000000"
 preserveAspectRatio="xMidYMid meet" fill="#000000">
<g transform="translate(0.000000,512.000000) scale(0.100000,-0.100000)"
 stroke="none">
<path d="M1043 4890 c-172 -56 -268 -252 -209 -427 l17 -51 -163 -159 c-90
-87 -248 -241 -353 -342 -190 -184 -225 -226 -225 -269 0 -13 92 -250 205
-527 l205 -504 0 -95 0 -96 -106 0 c-91 0 -112 -3 -145 -22 -60 -34 -79 -82
-79 -206 l0 -102 -51 0 c-30 0 -63 -7 -80 -17 -52 -31 -59 -62 -59 -260 0
-161 2 -181 20 -211 29 -47 73 -62 184 -62 l94 0 4 -140 3 -140 32 -32 c26
-26 43 -33 85 -38 l53 -5 5 -468 5 -469 25 -20 c17 -14 33 -18 54 -14 63 13
61 -9 64 506 l3 470 49 0 c37 0 55 6 79 26 40 34 51 77 51 212 l0 112 284 0
c271 0 284 1 310 21 33 26 36 79 6 109 -20 20 -33 20 -640 20 l-620 0 0 125 0
125 2410 0 2410 0 0 -125 0 -125 -1641 0 c-1137 0 -1646 -3 -1660 -11 -48 -25
-44 -105 7 -128 18 -8 381 -11 1329 -11 l1305 0 0 -112 c0 -135 11 -178 51
-212 24 -20 42 -26 79 -26 l49 0 3 -470 c3 -515 1 -493 64 -506 21 -4 37 0 54
14 l25 20 5 469 5 468 53 5 c42 5 59 12 85 38 l32 32 3 140 4 140 94 0 c111 0
155 15 184 62 18 30 20 50 20 211 0 238 -13 265 -130 277 l-55 5 -5 470 c-4
380 -8 474 -19 491 -33 49 -27 49 -516 54 l-460 5 -3 256 c-2 242 -3 257 -22
274 -28 25 -76 23 -103 -4 -21 -21 -22 -29 -25 -276 l-3 -255 -217 0 c-198 0
-220 -2 -249 -20 -52 -31 -63 -65 -63 -190 l0 -110 -975 0 -975 0 0 531 c0
502 1 531 18 524 43 -18 109 -17 153 3 39 18 207 151 298 235 61 57 86 146 61
211 l-10 26 980 0 979 0 3 -206 c3 -202 3 -206 27 -225 30 -25 76 -24 101 1
19 19 20 33 20 259 0 227 -1 240 -21 265 -46 59 14 56 -1104 56 -634 0 -1025
4 -1025 9 0 6 4 12 9 15 14 9 19 56 10 91 -12 43 -91 131 -141 156 -54 27
-125 39 -178 29 -44 -8 -46 -8 -90 35 -94 92 -227 124 -347 85z m175 -145 c41
-18 82 -53 81 -69 0 -12 -248 -223 -272 -231 -23 -9 -61 73 -61 130 2 132 132
220 252 170z m401 -159 c16 -16 22 -29 16 -35 -41 -39 -551 -461 -557 -461 -5
0 -17 15 -29 33 -23 36 -22 105 2 134 37 44 418 355 444 362 42 11 94 -3 124
-33z m71 -352 c0 -17 -34 -51 -137 -138 -76 -64 -146 -116 -157 -116 -18 0
-99 79 -94 91 2 4 73 66 158 138 l155 131 38 -41 c20 -23 37 -52 37 -65z
m-787 -156 c8 -18 34 -57 57 -85 57 -70 102 -85 174 -57 15 6 16 -60 16 -727
0 -818 -3 -778 69 -826 l34 -23 458 0 c253 0 459 -3 458 -7 0 -5 -26 -64 -58
-133 l-57 -125 -521 -3 -521 -2 -3 107 c-5 122 -20 161 -79 200 -29 21 -45 23
-146 23 l-114 0 0 110 0 111 -196 482 c-108 265 -199 489 -201 498 -3 10 100
116 299 310 l303 294 7 -57 c4 -31 13 -71 21 -90z m2725 -1550 l-3 -433 -112
-3 -113 -3 0 436 0 435 115 0 115 0 -2 -432z m1152 -3 l0 -435 -500 0 -500 0
0 435 0 435 500 0 500 0 0 -435z m-1530 50 l0 -65 -975 0 -975 0 0 65 0 65
975 0 975 0 0 -65z m-445 -339 c30 -66 55 -125 55 -133 0 -11 -59 -13 -320
-13 -176 0 -320 2 -320 4 0 5 98 222 112 249 8 16 26 17 214 15 l204 -3 55
-119z m445 -11 l0 -135 -104 0 c-73 0 -107 4 -113 13 -14 22 -113 240 -113
249 0 4 74 8 165 8 l165 0 0 -135z m-2392 -42 l-3 -88 -257 -3 -258 -2 0 90 0
90 260 0 261 0 -3 -87z m-198 -743 l0 -100 -105 0 -105 0 0 100 0 100 105 0
105 0 0 -100z m4010 0 l0 -100 -105 0 -105 0 0 100 0 100 105 0 105 0 0 -100z"/>
</g>
</svg>
